<?xml version="1.0" encoding="iso-8859-1"?>
<!-- Generator: Adobe Illustrator 18.1.1, SVG Export Plug-In . SVG Version: 6.00 Build 0)  -->
<svg xmlns="http://www.w3.org/2000/svg" xmlns:xlink="http://www.w3.org/1999/xlink" version="1.1" id="Capa_1" x="0px" y="0px" viewBox="0 0 28 28" style="enable-background:new 0 0 28 28;" xml:space="preserve" width="512px" height="512px">
<g>
	<g>
		<path d="M18,14c-0.75,0-8,0-8,0s-2,0-2,2c0,0.777,0,12,0,12h12V16C20,16,20,14,18,14z" fill="#005bbb"/>
		<circle cx="14" cy="9" r="3" fill="#005bbb"/>
		<circle cx="6" cy="3" r="3" fill="#005bbb"/>
		<path d="M10.023,12C9.39,11.162,9,10.131,9,9c0-0.343,0.035-0.677,0.101-1C6.968,8,2,8,2,8s-2,0-2,2    c0,0.778,0,12,0,12h6v-6c0-4,4-4,4-4H10.023z" fill="#005bbb"/>
		<path d="M26,8c-0.587,0-5.143,0-7.102,0C18.965,8.323,19,8.657,19,9c0,1.131-0.391,2.162-1.021,3H18    c4,0,4,4,4,4v6h6V10C28,10,28,8,26,8z" fill="#005bbb"/>
		<circle cx="22" cy="3" r="3" fill="#005bbb"/>
	</g>
</g>
<g>
</g>
<g>
</g>
<g>
</g>
<g>
</g>
<g>
</g>
<g>
</g>
<g>
</g>
<g>
</g>
<g>
</g>
<g>
</g>
<g>
</g>
<g>
</g>
<g>
</g>
<g>
</g>
<g>
</g>
</svg>
