<?xml version="1.0" encoding="iso-8859-1"?>
<!-- Generator: Adobe Illustrator 19.0.0, SVG Export Plug-In . SVG Version: 6.00 Build 0)  -->
<svg xmlns="http://www.w3.org/2000/svg" xmlns:xlink="http://www.w3.org/1999/xlink" version="1.1" id="Layer_1" x="0px" y="0px" viewBox="0 0 512 512" style="enable-background:new 0 0 512 512;" xml:space="preserve" width="512px" height="512px">
<g>
	<g>
		<path d="M0,49.778v355.556h323.604c-4.696-7.078-7.516-16.186-11.728-23.465c-6.053-10.46-17.476-20.469-17.476-33.424    s11.423-22.963,17.476-33.424c6.244-10.792,9.412-25.621,20.204-31.865c10.462-6.052,24.744-1.556,37.697-1.556    s27.236-4.496,37.697,1.556c10.792,6.245,13.961,21.073,20.204,31.865c6.053,10.46,17.476,20.469,17.476,33.424    s-11.423,22.963-17.476,33.424c-4.211,7.279-7.031,16.387-11.728,23.465H512V49.778H0z M170.667,120.889h170.667v42.667H170.667    V120.889z M256,334.222H85.333v-42.667H256V334.222z M426.667,248.889H85.333v-42.667h341.333V248.889z" fill="#005bbb"/>
	</g>
</g>
<g>
	<g>
		<polygon points="341.333,416.612 341.333,462.222 369.778,448 398.222,462.222 398.222,416.612   " fill="#005bbb"/>
	</g>
</g>
<g>
	<g>
		<circle cx="369.778" cy="348.444" r="42.667" fill="#005bbb"/>
	</g>
</g>
<g>
</g>
<g>
</g>
<g>
</g>
<g>
</g>
<g>
</g>
<g>
</g>
<g>
</g>
<g>
</g>
<g>
</g>
<g>
</g>
<g>
</g>
<g>
</g>
<g>
</g>
<g>
</g>
<g>
</g>
</svg>
